<svg width="48" height="48" viewBox="0 0 48 48" fill="none" xmlns="http://www.w3.org/2000/svg">
<g clip-path="url(#clip0_293_96)">
<path d="M33.75 32.0625L27.9338 26.2453C28.8711 24.9572 29.3753 23.4049 29.3738 21.8119C29.3738 17.6423 25.9814 14.25 21.8119 14.25C17.6423 14.25 14.25 17.6423 14.25 21.8119C14.25 25.9814 17.6423 29.3738 21.8119 29.3738C23.4049 29.3753 24.9572 28.8711 26.2453 27.9338L32.0625 33.75L33.75 32.0625ZM21.8119 26.9855C20.7885 26.9856 19.7881 26.6822 18.9371 26.1137C18.0862 25.5452 17.423 24.7371 17.0313 23.7917C16.6396 22.8462 16.5371 21.8058 16.7367 20.8021C16.9364 19.7984 17.4292 18.8764 18.1528 18.1528C18.8764 17.4292 19.7984 16.9364 20.8021 16.7367C21.8058 16.5371 22.8462 16.6396 23.7917 17.0313C24.7371 17.423 25.5452 18.0862 26.1137 18.9371C26.6822 19.7881 26.9856 20.7885 26.9855 21.8119C26.9839 23.1835 26.4383 24.4985 25.4684 25.4684C24.4985 26.4383 23.1835 26.9839 21.8119 26.9855Z" fill="black"/>
</g>
<defs>
<clipPath id="clip0_293_96">
<rect x="4" y="4" width="40" height="40" rx="20" fill="white"/>
</clipPath>
</defs>
</svg>
